<mxfile host="Electron" agent="Mozilla/5.0 (X11; Linux x86_64) AppleWebKit/537.36 (KHTML, like Gecko) draw.io/26.2.2 Chrome/134.0.6998.178 Electron/35.1.2 Safari/537.36" version="26.2.2">
  <diagram name="Page-1" id="2a216829-ef6e-dabb-86c1-c78162f3ba2b">
    <mxGraphModel dx="986" dy="581" grid="1" gridSize="10" guides="1" tooltips="1" connect="1" arrows="1" fold="1" page="1" pageScale="1" pageWidth="1654" pageHeight="2336" background="none" math="0" shadow="0">
      <root>
        <mxCell id="0" />
        <mxCell id="1" parent="0" />
        <mxCell id="ZawwrR4OTCmyjiMySebj-3" value="User" style="swimlane;html=1;startSize=20;horizontal=0;" parent="1" vertex="1">
          <mxGeometry x="290" y="760" width="1050" height="40" as="geometry" />
        </mxCell>
        <mxCell id="ZawwrR4OTCmyjiMySebj-2" value="MyWaze ETA" style="swimlane;html=1;childLayout=stackLayout;resizeParent=1;resizeParentMax=0;horizontal=0;startSize=20;horizontalStack=0;whiteSpace=wrap;" parent="1" vertex="1">
          <mxGeometry x="270" y="860" width="1070" height="410" as="geometry" />
        </mxCell>
        <mxCell id="ZawwrR4OTCmyjiMySebj-4" value="System" style="swimlane;html=1;startSize=20;horizontal=0;" parent="ZawwrR4OTCmyjiMySebj-2" vertex="1">
          <mxGeometry x="20" width="1050" height="410" as="geometry" />
        </mxCell>
        <mxCell id="rdYKM30YboU42W7FAhmL-1" value="Calculate ETA" style="points=[[0.25,0,0],[0.5,0,0],[0.75,0,0],[1,0.25,0],[1,0.5,0],[1,0.75,0],[0.75,1,0],[0.5,1,0],[0.25,1,0],[0,0.75,0],[0,0.5,0],[0,0.25,0]];shape=mxgraph.bpmn.task2;whiteSpace=wrap;rectStyle=rounded;size=10;html=1;container=1;expand=0;collapsible=0;taskMarker=abstract;" parent="ZawwrR4OTCmyjiMySebj-4" vertex="1">
          <mxGeometry x="485" y="215" width="105" height="70" as="geometry" />
        </mxCell>
        <mxCell id="S53rscQsFDapNy-XORst-2" value="Define Route" style="points=[[0.25,0,0],[0.5,0,0],[0.75,0,0],[1,0.25,0],[1,0.5,0],[1,0.75,0],[0.75,1,0],[0.5,1,0],[0.25,1,0],[0,0.75,0],[0,0.5,0],[0,0.25,0]];shape=mxgraph.bpmn.task2;whiteSpace=wrap;rectStyle=rounded;size=10;html=1;container=1;expand=0;collapsible=0;taskMarker=abstract;" vertex="1" parent="ZawwrR4OTCmyjiMySebj-4">
          <mxGeometry x="180" y="220" width="90" height="60" as="geometry" />
        </mxCell>
        <mxCell id="S53rscQsFDapNy-XORst-3" value="Display Route with ETA" style="shape=mxgraph.bpmn.task2;whiteSpace=wrap;rectStyle=rounded;size=10;html=1;container=1;expand=0;collapsible=0;taskMarker=send;points=[[0.25,0,0],[0.5,0,0],[0.75,0,0],[1,0.25,0],[1,0.5,0],[1,0.75,0],[0.75,1,0],[0.5,1,0],[0.25,1,0],[0,0.75,0],[0,0.5,0],[0,0.25,0]];" vertex="1" parent="ZawwrR4OTCmyjiMySebj-4">
          <mxGeometry x="760" y="120" width="105" height="70" as="geometry" />
        </mxCell>
        <mxCell id="S53rscQsFDapNy-XORst-4" value="receive user data" style="points=[[0.145,0.145,0],[0.5,0,0],[0.855,0.145,0],[1,0.5,0],[0.855,0.855,0],[0.5,1,0],[0.145,0.855,0],[0,0.5,0]];shape=mxgraph.bpmn.event;html=1;verticalLabelPosition=bottom;labelBackgroundColor=#ffffff;verticalAlign=top;align=center;perimeter=ellipsePerimeter;outlineConnect=0;aspect=fixed;outline=standard;symbol=message;" vertex="1" parent="ZawwrR4OTCmyjiMySebj-4">
          <mxGeometry x="70" y="60" width="30" height="30" as="geometry" />
        </mxCell>
        <mxCell id="S53rscQsFDapNy-XORst-7" value="Drive in Progress?" style="points=[[0.25,0.25,0],[0.5,0,0],[0.75,0.25,0],[1,0.5,0],[0.75,0.75,0],[0.5,1,0],[0.25,0.75,0],[0,0.5,0]];shape=mxgraph.bpmn.gateway2;html=1;verticalLabelPosition=top;labelBackgroundColor=#ffffff;verticalAlign=bottom;align=center;perimeter=rhombusPerimeter;outlineConnect=0;outline=end;symbol=general;labelPosition=center;" vertex="1" parent="ZawwrR4OTCmyjiMySebj-4">
          <mxGeometry x="200" y="50" width="50" height="50" as="geometry" />
        </mxCell>
        <mxCell id="S53rscQsFDapNy-XORst-8" value="Calculate ETA" style="shape=mxgraph.bpmn.task2;whiteSpace=wrap;rectStyle=rounded;size=10;html=1;container=1;expand=0;collapsible=0;taskMarker=abstract;points=[[0.25,0,0],[0.5,0,0],[0.75,0,0],[1,0.25,0],[1,0.5,0],[1,0.75,0],[0.75,1,0],[0.5,1,0],[0.25,1,0],[0,0.75,0],[0,0.5,0],[0,0.25,0]];isLoopStandard=1;" vertex="1" parent="ZawwrR4OTCmyjiMySebj-4">
          <mxGeometry x="490" y="40" width="105" height="70" as="geometry" />
        </mxCell>
        <mxCell id="S53rscQsFDapNy-XORst-16" value="Retrive Current Drive Data" style="points=[[0.25,0,0],[0.5,0,0],[0.75,0,0],[1,0.25,0],[1,0.5,0],[1,0.75,0],[0.75,1,0],[0.5,1,0],[0.25,1,0],[0,0.75,0],[0,0.5,0],[0,0.25,0]];shape=mxgraph.bpmn.task2;whiteSpace=wrap;rectStyle=rounded;size=10;html=1;container=1;expand=0;collapsible=0;taskMarker=abstract;" vertex="1" parent="ZawwrR4OTCmyjiMySebj-4">
          <mxGeometry x="310" y="40" width="105" height="70" as="geometry" />
        </mxCell>
        <mxCell id="S53rscQsFDapNy-XORst-17" value="" style="points=[[0.145,0.145,0],[0.5,0,0],[0.855,0.145,0],[1,0.5,0],[0.855,0.855,0],[0.5,1,0],[0.145,0.855,0],[0,0.5,0]];shape=mxgraph.bpmn.event;html=1;verticalLabelPosition=bottom;labelBackgroundColor=#ffffff;verticalAlign=top;align=center;perimeter=ellipsePerimeter;outlineConnect=0;aspect=fixed;outline=end;symbol=terminate2;" vertex="1" parent="ZawwrR4OTCmyjiMySebj-4">
          <mxGeometry x="940" y="135" width="40" height="40" as="geometry" />
        </mxCell>
        <mxCell id="S53rscQsFDapNy-XORst-18" style="edgeStyle=orthogonalEdgeStyle;rounded=0;orthogonalLoop=1;jettySize=auto;html=1;entryX=0;entryY=0.5;entryDx=0;entryDy=0;entryPerimeter=0;" edge="1" parent="ZawwrR4OTCmyjiMySebj-4" source="S53rscQsFDapNy-XORst-4" target="S53rscQsFDapNy-XORst-7">
          <mxGeometry relative="1" as="geometry" />
        </mxCell>
        <mxCell id="S53rscQsFDapNy-XORst-19" style="edgeStyle=orthogonalEdgeStyle;rounded=0;orthogonalLoop=1;jettySize=auto;html=1;entryX=0.5;entryY=0;entryDx=0;entryDy=0;entryPerimeter=0;" edge="1" parent="ZawwrR4OTCmyjiMySebj-4" source="S53rscQsFDapNy-XORst-7" target="S53rscQsFDapNy-XORst-2">
          <mxGeometry relative="1" as="geometry" />
        </mxCell>
        <mxCell id="S53rscQsFDapNy-XORst-20" style="edgeStyle=orthogonalEdgeStyle;rounded=0;orthogonalLoop=1;jettySize=auto;html=1;entryX=0;entryY=0.5;entryDx=0;entryDy=0;entryPerimeter=0;" edge="1" parent="ZawwrR4OTCmyjiMySebj-4" source="S53rscQsFDapNy-XORst-7" target="S53rscQsFDapNy-XORst-16">
          <mxGeometry relative="1" as="geometry" />
        </mxCell>
        <mxCell id="S53rscQsFDapNy-XORst-21" style="edgeStyle=orthogonalEdgeStyle;rounded=0;orthogonalLoop=1;jettySize=auto;html=1;entryX=0;entryY=0.5;entryDx=0;entryDy=0;entryPerimeter=0;" edge="1" parent="ZawwrR4OTCmyjiMySebj-4" source="S53rscQsFDapNy-XORst-16" target="S53rscQsFDapNy-XORst-8">
          <mxGeometry relative="1" as="geometry" />
        </mxCell>
        <mxCell id="S53rscQsFDapNy-XORst-22" value="" style="points=[[0.25,0.25,0],[0.5,0,0],[0.75,0.25,0],[1,0.5,0],[0.75,0.75,0],[0.5,1,0],[0.25,0.75,0],[0,0.5,0]];shape=mxgraph.bpmn.gateway2;html=1;verticalLabelPosition=bottom;labelBackgroundColor=#ffffff;verticalAlign=top;align=center;perimeter=rhombusPerimeter;outlineConnect=0;outline=end;symbol=general;" vertex="1" parent="ZawwrR4OTCmyjiMySebj-4">
          <mxGeometry x="650" y="130" width="50" height="50" as="geometry" />
        </mxCell>
        <mxCell id="S53rscQsFDapNy-XORst-23" style="edgeStyle=orthogonalEdgeStyle;rounded=0;orthogonalLoop=1;jettySize=auto;html=1;entryX=0.5;entryY=0;entryDx=0;entryDy=0;entryPerimeter=0;" edge="1" parent="ZawwrR4OTCmyjiMySebj-4" source="S53rscQsFDapNy-XORst-8" target="S53rscQsFDapNy-XORst-22">
          <mxGeometry relative="1" as="geometry" />
        </mxCell>
        <mxCell id="S53rscQsFDapNy-XORst-24" style="edgeStyle=orthogonalEdgeStyle;rounded=0;orthogonalLoop=1;jettySize=auto;html=1;entryX=0.5;entryY=1;entryDx=0;entryDy=0;entryPerimeter=0;" edge="1" parent="ZawwrR4OTCmyjiMySebj-4" source="rdYKM30YboU42W7FAhmL-1" target="S53rscQsFDapNy-XORst-22">
          <mxGeometry relative="1" as="geometry" />
        </mxCell>
        <mxCell id="S53rscQsFDapNy-XORst-25" style="edgeStyle=orthogonalEdgeStyle;rounded=0;orthogonalLoop=1;jettySize=auto;html=1;entryX=0;entryY=0.5;entryDx=0;entryDy=0;entryPerimeter=0;" edge="1" parent="ZawwrR4OTCmyjiMySebj-4" source="S53rscQsFDapNy-XORst-22" target="S53rscQsFDapNy-XORst-3">
          <mxGeometry relative="1" as="geometry" />
        </mxCell>
        <mxCell id="S53rscQsFDapNy-XORst-26" style="edgeStyle=orthogonalEdgeStyle;rounded=0;orthogonalLoop=1;jettySize=auto;html=1;entryX=0;entryY=0.5;entryDx=0;entryDy=0;entryPerimeter=0;" edge="1" parent="ZawwrR4OTCmyjiMySebj-4" source="S53rscQsFDapNy-XORst-3" target="S53rscQsFDapNy-XORst-17">
          <mxGeometry relative="1" as="geometry" />
        </mxCell>
        <mxCell id="S53rscQsFDapNy-XORst-27" style="edgeStyle=orthogonalEdgeStyle;rounded=0;orthogonalLoop=1;jettySize=auto;html=1;entryX=0;entryY=0.5;entryDx=0;entryDy=0;entryPerimeter=0;" edge="1" parent="ZawwrR4OTCmyjiMySebj-4" source="S53rscQsFDapNy-XORst-2" target="rdYKM30YboU42W7FAhmL-1">
          <mxGeometry relative="1" as="geometry" />
        </mxCell>
        <mxCell id="S53rscQsFDapNy-XORst-28" value="Current Drive" style="shape=mxgraph.bpmn.data2;labelPosition=center;verticalLabelPosition=bottom;align=center;verticalAlign=top;size=15;html=1;" vertex="1" parent="ZawwrR4OTCmyjiMySebj-4">
          <mxGeometry x="420" y="120" width="30" height="45" as="geometry" />
        </mxCell>
        <mxCell id="S53rscQsFDapNy-XORst-29" style="rounded=0;orthogonalLoop=1;jettySize=auto;html=1;entryX=0.018;entryY=0.752;entryDx=0;entryDy=0;entryPerimeter=0;exitX=0.5;exitY=1;exitDx=0;exitDy=0;exitPerimeter=0;dashed=1;dashPattern=1 4;endArrow=open;endFill=0;" edge="1" parent="ZawwrR4OTCmyjiMySebj-4" source="S53rscQsFDapNy-XORst-16" target="S53rscQsFDapNy-XORst-28">
          <mxGeometry relative="1" as="geometry" />
        </mxCell>
        <mxCell id="S53rscQsFDapNy-XORst-31" style="rounded=0;orthogonalLoop=1;jettySize=auto;html=1;entryX=0.25;entryY=1;entryDx=0;entryDy=0;entryPerimeter=0;dashed=1;dashPattern=1 4;exitX=0;exitY=0;exitDx=30;exitDy=30;exitPerimeter=0;endArrow=open;endFill=0;" edge="1" parent="ZawwrR4OTCmyjiMySebj-4" source="S53rscQsFDapNy-XORst-28" target="S53rscQsFDapNy-XORst-8">
          <mxGeometry relative="1" as="geometry" />
        </mxCell>
        <mxCell id="S53rscQsFDapNy-XORst-33" value="Route" style="shape=mxgraph.bpmn.data2;labelPosition=center;verticalLabelPosition=bottom;align=center;verticalAlign=top;size=15;html=1;" vertex="1" parent="ZawwrR4OTCmyjiMySebj-4">
          <mxGeometry x="385" y="317.5" width="30" height="45" as="geometry" />
        </mxCell>
        <mxCell id="S53rscQsFDapNy-XORst-34" style="rounded=0;orthogonalLoop=1;jettySize=auto;html=1;entryX=0;entryY=0.5;entryDx=0;entryDy=0;entryPerimeter=0;dashed=1;dashPattern=1 4;endArrow=open;endFill=0;" edge="1" parent="ZawwrR4OTCmyjiMySebj-4" source="S53rscQsFDapNy-XORst-2" target="S53rscQsFDapNy-XORst-33">
          <mxGeometry relative="1" as="geometry" />
        </mxCell>
        <mxCell id="S53rscQsFDapNy-XORst-35" value="User Data DS" style="shape=datastore;html=1;labelPosition=center;verticalLabelPosition=bottom;align=center;verticalAlign=top;" vertex="1" parent="ZawwrR4OTCmyjiMySebj-4">
          <mxGeometry x="180" y="315" width="40" height="50" as="geometry" />
        </mxCell>
        <mxCell id="S53rscQsFDapNy-XORst-38" style="rounded=0;orthogonalLoop=1;jettySize=auto;html=1;entryX=0.5;entryY=0;entryDx=0;entryDy=0;dashed=1;dashPattern=1 4;endArrow=open;endFill=0;" edge="1" parent="ZawwrR4OTCmyjiMySebj-4" source="S53rscQsFDapNy-XORst-2" target="S53rscQsFDapNy-XORst-35">
          <mxGeometry relative="1" as="geometry" />
        </mxCell>
        <mxCell id="S53rscQsFDapNy-XORst-42" style="edgeStyle=none;shape=connector;rounded=0;orthogonalLoop=1;jettySize=auto;html=1;entryX=0.25;entryY=1;entryDx=0;entryDy=0;entryPerimeter=0;dashed=1;dashPattern=1 4;strokeColor=default;align=center;verticalAlign=middle;fontFamily=Helvetica;fontSize=11;fontColor=default;labelBackgroundColor=default;endArrow=open;endFill=0;" edge="1" parent="ZawwrR4OTCmyjiMySebj-4" source="S53rscQsFDapNy-XORst-33" target="rdYKM30YboU42W7FAhmL-1">
          <mxGeometry relative="1" as="geometry" />
        </mxCell>
        <mxCell id="S53rscQsFDapNy-XORst-43" style="edgeStyle=orthogonalEdgeStyle;shape=connector;rounded=0;orthogonalLoop=1;jettySize=auto;html=1;align=center;verticalAlign=middle;fontFamily=Helvetica;fontSize=11;fontColor=default;labelBackgroundColor=default;endArrow=classic;startArrow=oval;startFill=1;startFillColor=#FFFFFF;endFill=1;fixDash=0;strokeWidth=1;dashed=1;dashPattern=8 8;backgroundOutline=0;arcSize=20;fillOpacity=100;strokeOpacity=100;" edge="1" parent="ZawwrR4OTCmyjiMySebj-4" target="S53rscQsFDapNy-XORst-4">
          <mxGeometry relative="1" as="geometry">
            <mxPoint x="85" y="-60" as="sourcePoint" />
          </mxGeometry>
        </mxCell>
        <mxCell id="S53rscQsFDapNy-XORst-44" style="edgeStyle=orthogonalEdgeStyle;shape=connector;rounded=0;orthogonalLoop=1;jettySize=auto;html=1;align=center;verticalAlign=middle;fontFamily=Helvetica;fontSize=11;fontColor=default;labelBackgroundColor=default;endArrow=classic;startArrow=oval;startFill=1;startFillColor=#FFFFFF;endFill=1;fixDash=0;strokeWidth=1;dashed=1;dashPattern=8 8;backgroundOutline=0;arcSize=20;fillOpacity=100;strokeOpacity=100;exitX=0.5;exitY=0;exitDx=0;exitDy=0;exitPerimeter=0;" edge="1" parent="ZawwrR4OTCmyjiMySebj-4" source="S53rscQsFDapNy-XORst-3">
          <mxGeometry relative="1" as="geometry">
            <mxPoint x="812" y="-60" as="targetPoint" />
            <mxPoint x="812.16" y="90" as="sourcePoint" />
          </mxGeometry>
        </mxCell>
      </root>
    </mxGraphModel>
  </diagram>
</mxfile>
